# xmcd
# 
# Track frame offsets:
#	150
#	18477
#	37225
#	54477
#	69440
#	94475
#	121040
#	139602
#	153190
#
# Disc length: 2394 seconds
#
# Revision: 1
# Processed by: cddbd v1.4PL0 Copyright (c) Steve Scherf et al.
# Submitted via: Audio-CD-Archiv 2.10.446
#
DISCID=74095809
DTITLE=Jimmy Witherspoon - Sings the Blues
DYEAR=1900
DGENRE=blues
TTITLE0=Kansas City
TTITLE1=Ain't Nobodys Business
TTITLE2=Gee Baby Ain't I Been Good To You
TTITLE3=Nobody Knows You
TTITLE4=Goin' To Chicago
TTITLE5=See See Rider
TTITLE6=Sweet Lotus Blossom
TTITLE7=Trouble In Mind
TTITLE8=Roll 'em Pete
EXTD=
EXTT0=
EXTT1=
EXTT2=
EXTT3=
EXTT4=
EXTT5=
EXTT6=
EXTT7=
EXTT8=
PLAYORDER=
